%TF.GenerationSoftware,KiCad,Pcbnew,9.0.7*%
%TF.CreationDate,2026-03-30T23:21:56+05:30*%
%TF.ProjectId,AGV_nPM1100,4147565f-6e50-44d3-9131-30302e6b6963,rev?*%
%TF.SameCoordinates,Original*%
%TF.FileFunction,Legend,Top*%
%TF.FilePolarity,Positive*%
%FSLAX46Y46*%
G04 Gerber Fmt 4.6, Leading zero omitted, Abs format (unit mm)*
G04 Created by KiCad (PCBNEW 9.0.7) date 2026-03-30 23:21:56*
%MOMM*%
%LPD*%
G01*
G04 APERTURE LIST*
%ADD10C,0.150000*%
%ADD11C,0.125000*%
%ADD12C,0.120000*%
%ADD13C,0.152400*%
%ADD14C,0.000000*%
G04 APERTURE END LIST*
D10*
X162586779Y-106369819D02*
X162586779Y-105369819D01*
X162586779Y-105369819D02*
X162967731Y-105369819D01*
X162967731Y-105369819D02*
X163062969Y-105417438D01*
X163062969Y-105417438D02*
X163110588Y-105465057D01*
X163110588Y-105465057D02*
X163158207Y-105560295D01*
X163158207Y-105560295D02*
X163158207Y-105703152D01*
X163158207Y-105703152D02*
X163110588Y-105798390D01*
X163110588Y-105798390D02*
X163062969Y-105846009D01*
X163062969Y-105846009D02*
X162967731Y-105893628D01*
X162967731Y-105893628D02*
X162586779Y-105893628D01*
X163586779Y-106369819D02*
X163586779Y-105369819D01*
X163586779Y-105369819D02*
X163920112Y-106084104D01*
X163920112Y-106084104D02*
X164253445Y-105369819D01*
X164253445Y-105369819D02*
X164253445Y-106369819D01*
X164729636Y-106369819D02*
X164729636Y-105369819D01*
X165777254Y-106274580D02*
X165729635Y-106322200D01*
X165729635Y-106322200D02*
X165586778Y-106369819D01*
X165586778Y-106369819D02*
X165491540Y-106369819D01*
X165491540Y-106369819D02*
X165348683Y-106322200D01*
X165348683Y-106322200D02*
X165253445Y-106226961D01*
X165253445Y-106226961D02*
X165205826Y-106131723D01*
X165205826Y-106131723D02*
X165158207Y-105941247D01*
X165158207Y-105941247D02*
X165158207Y-105798390D01*
X165158207Y-105798390D02*
X165205826Y-105607914D01*
X165205826Y-105607914D02*
X165253445Y-105512676D01*
X165253445Y-105512676D02*
X165348683Y-105417438D01*
X165348683Y-105417438D02*
X165491540Y-105369819D01*
X165491540Y-105369819D02*
X165586778Y-105369819D01*
X165586778Y-105369819D02*
X165729635Y-105417438D01*
X165729635Y-105417438D02*
X165777254Y-105465057D01*
X167396302Y-105703152D02*
X167396302Y-106369819D01*
X166967731Y-105703152D02*
X166967731Y-106226961D01*
X166967731Y-106226961D02*
X167015350Y-106322200D01*
X167015350Y-106322200D02*
X167110588Y-106369819D01*
X167110588Y-106369819D02*
X167253445Y-106369819D01*
X167253445Y-106369819D02*
X167348683Y-106322200D01*
X167348683Y-106322200D02*
X167396302Y-106274580D01*
X167824874Y-106322200D02*
X167920112Y-106369819D01*
X167920112Y-106369819D02*
X168110588Y-106369819D01*
X168110588Y-106369819D02*
X168205826Y-106322200D01*
X168205826Y-106322200D02*
X168253445Y-106226961D01*
X168253445Y-106226961D02*
X168253445Y-106179342D01*
X168253445Y-106179342D02*
X168205826Y-106084104D01*
X168205826Y-106084104D02*
X168110588Y-106036485D01*
X168110588Y-106036485D02*
X167967731Y-106036485D01*
X167967731Y-106036485D02*
X167872493Y-105988866D01*
X167872493Y-105988866D02*
X167824874Y-105893628D01*
X167824874Y-105893628D02*
X167824874Y-105846009D01*
X167824874Y-105846009D02*
X167872493Y-105750771D01*
X167872493Y-105750771D02*
X167967731Y-105703152D01*
X167967731Y-105703152D02*
X168110588Y-105703152D01*
X168110588Y-105703152D02*
X168205826Y-105750771D01*
X168682017Y-106369819D02*
X168682017Y-105703152D01*
X168682017Y-105369819D02*
X168634398Y-105417438D01*
X168634398Y-105417438D02*
X168682017Y-105465057D01*
X168682017Y-105465057D02*
X168729636Y-105417438D01*
X168729636Y-105417438D02*
X168682017Y-105369819D01*
X168682017Y-105369819D02*
X168682017Y-105465057D01*
X169158207Y-105703152D02*
X169158207Y-106369819D01*
X169158207Y-105798390D02*
X169205826Y-105750771D01*
X169205826Y-105750771D02*
X169301064Y-105703152D01*
X169301064Y-105703152D02*
X169443921Y-105703152D01*
X169443921Y-105703152D02*
X169539159Y-105750771D01*
X169539159Y-105750771D02*
X169586778Y-105846009D01*
X169586778Y-105846009D02*
X169586778Y-106369819D01*
X170491540Y-105703152D02*
X170491540Y-106512676D01*
X170491540Y-106512676D02*
X170443921Y-106607914D01*
X170443921Y-106607914D02*
X170396302Y-106655533D01*
X170396302Y-106655533D02*
X170301064Y-106703152D01*
X170301064Y-106703152D02*
X170158207Y-106703152D01*
X170158207Y-106703152D02*
X170062969Y-106655533D01*
X170491540Y-106322200D02*
X170396302Y-106369819D01*
X170396302Y-106369819D02*
X170205826Y-106369819D01*
X170205826Y-106369819D02*
X170110588Y-106322200D01*
X170110588Y-106322200D02*
X170062969Y-106274580D01*
X170062969Y-106274580D02*
X170015350Y-106179342D01*
X170015350Y-106179342D02*
X170015350Y-105893628D01*
X170015350Y-105893628D02*
X170062969Y-105798390D01*
X170062969Y-105798390D02*
X170110588Y-105750771D01*
X170110588Y-105750771D02*
X170205826Y-105703152D01*
X170205826Y-105703152D02*
X170396302Y-105703152D01*
X170396302Y-105703152D02*
X170491540Y-105750771D01*
D11*
X171046521Y-122932309D02*
X171141759Y-122932309D01*
X171141759Y-122932309D02*
X171189378Y-122956119D01*
X171189378Y-122956119D02*
X171236997Y-123003738D01*
X171236997Y-123003738D02*
X171260807Y-123098976D01*
X171260807Y-123098976D02*
X171260807Y-123265642D01*
X171260807Y-123265642D02*
X171236997Y-123360880D01*
X171236997Y-123360880D02*
X171189378Y-123408500D01*
X171189378Y-123408500D02*
X171141759Y-123432309D01*
X171141759Y-123432309D02*
X171046521Y-123432309D01*
X171046521Y-123432309D02*
X170998902Y-123408500D01*
X170998902Y-123408500D02*
X170951283Y-123360880D01*
X170951283Y-123360880D02*
X170927474Y-123265642D01*
X170927474Y-123265642D02*
X170927474Y-123098976D01*
X170927474Y-123098976D02*
X170951283Y-123003738D01*
X170951283Y-123003738D02*
X170998902Y-122956119D01*
X170998902Y-122956119D02*
X171046521Y-122932309D01*
X171475093Y-123098976D02*
X171475093Y-123527547D01*
X171475093Y-123527547D02*
X171451284Y-123575166D01*
X171451284Y-123575166D02*
X171403665Y-123598976D01*
X171403665Y-123598976D02*
X171379855Y-123598976D01*
X171475093Y-122932309D02*
X171451284Y-122956119D01*
X171451284Y-122956119D02*
X171475093Y-122979928D01*
X171475093Y-122979928D02*
X171498903Y-122956119D01*
X171498903Y-122956119D02*
X171475093Y-122932309D01*
X171475093Y-122932309D02*
X171475093Y-122979928D01*
X171927474Y-123432309D02*
X171927474Y-123170404D01*
X171927474Y-123170404D02*
X171903664Y-123122785D01*
X171903664Y-123122785D02*
X171856045Y-123098976D01*
X171856045Y-123098976D02*
X171760807Y-123098976D01*
X171760807Y-123098976D02*
X171713188Y-123122785D01*
X171927474Y-123408500D02*
X171879855Y-123432309D01*
X171879855Y-123432309D02*
X171760807Y-123432309D01*
X171760807Y-123432309D02*
X171713188Y-123408500D01*
X171713188Y-123408500D02*
X171689379Y-123360880D01*
X171689379Y-123360880D02*
X171689379Y-123313261D01*
X171689379Y-123313261D02*
X171713188Y-123265642D01*
X171713188Y-123265642D02*
X171760807Y-123241833D01*
X171760807Y-123241833D02*
X171879855Y-123241833D01*
X171879855Y-123241833D02*
X171927474Y-123218023D01*
X172141760Y-123408500D02*
X172189379Y-123432309D01*
X172189379Y-123432309D02*
X172284617Y-123432309D01*
X172284617Y-123432309D02*
X172332236Y-123408500D01*
X172332236Y-123408500D02*
X172356045Y-123360880D01*
X172356045Y-123360880D02*
X172356045Y-123337071D01*
X172356045Y-123337071D02*
X172332236Y-123289452D01*
X172332236Y-123289452D02*
X172284617Y-123265642D01*
X172284617Y-123265642D02*
X172213188Y-123265642D01*
X172213188Y-123265642D02*
X172165569Y-123241833D01*
X172165569Y-123241833D02*
X172141760Y-123194214D01*
X172141760Y-123194214D02*
X172141760Y-123170404D01*
X172141760Y-123170404D02*
X172165569Y-123122785D01*
X172165569Y-123122785D02*
X172213188Y-123098976D01*
X172213188Y-123098976D02*
X172284617Y-123098976D01*
X172284617Y-123098976D02*
X172332236Y-123122785D01*
X172951283Y-123432309D02*
X172951283Y-122932309D01*
X172951283Y-122932309D02*
X173236997Y-123432309D01*
X173236997Y-123432309D02*
X173236997Y-122932309D01*
X173475093Y-123432309D02*
X173475093Y-123098976D01*
X173475093Y-122932309D02*
X173451284Y-122956119D01*
X173451284Y-122956119D02*
X173475093Y-122979928D01*
X173475093Y-122979928D02*
X173498903Y-122956119D01*
X173498903Y-122956119D02*
X173475093Y-122932309D01*
X173475093Y-122932309D02*
X173475093Y-122979928D01*
X173713188Y-123432309D02*
X173713188Y-122932309D01*
X173760807Y-123241833D02*
X173903664Y-123432309D01*
X173903664Y-123098976D02*
X173713188Y-123289452D01*
X174332236Y-123432309D02*
X174332236Y-123170404D01*
X174332236Y-123170404D02*
X174308426Y-123122785D01*
X174308426Y-123122785D02*
X174260807Y-123098976D01*
X174260807Y-123098976D02*
X174165569Y-123098976D01*
X174165569Y-123098976D02*
X174117950Y-123122785D01*
X174332236Y-123408500D02*
X174284617Y-123432309D01*
X174284617Y-123432309D02*
X174165569Y-123432309D01*
X174165569Y-123432309D02*
X174117950Y-123408500D01*
X174117950Y-123408500D02*
X174094141Y-123360880D01*
X174094141Y-123360880D02*
X174094141Y-123313261D01*
X174094141Y-123313261D02*
X174117950Y-123265642D01*
X174117950Y-123265642D02*
X174165569Y-123241833D01*
X174165569Y-123241833D02*
X174284617Y-123241833D01*
X174284617Y-123241833D02*
X174332236Y-123218023D01*
X174570331Y-123432309D02*
X174570331Y-123098976D01*
X174570331Y-123146595D02*
X174594141Y-123122785D01*
X174594141Y-123122785D02*
X174641760Y-123098976D01*
X174641760Y-123098976D02*
X174713188Y-123098976D01*
X174713188Y-123098976D02*
X174760807Y-123122785D01*
X174760807Y-123122785D02*
X174784617Y-123170404D01*
X174784617Y-123170404D02*
X174784617Y-123432309D01*
X174784617Y-123170404D02*
X174808426Y-123122785D01*
X174808426Y-123122785D02*
X174856045Y-123098976D01*
X174856045Y-123098976D02*
X174927474Y-123098976D01*
X174927474Y-123098976D02*
X174975093Y-123122785D01*
X174975093Y-123122785D02*
X174998903Y-123170404D01*
X174998903Y-123170404D02*
X174998903Y-123432309D01*
D10*
X168836779Y-107110961D02*
X168836779Y-107644295D01*
X168836779Y-107187152D02*
X168884398Y-107149057D01*
X168884398Y-107149057D02*
X168979636Y-107110961D01*
X168979636Y-107110961D02*
X169122493Y-107110961D01*
X169122493Y-107110961D02*
X169217731Y-107149057D01*
X169217731Y-107149057D02*
X169265350Y-107225247D01*
X169265350Y-107225247D02*
X169265350Y-107644295D01*
X169741541Y-107110961D02*
X169741541Y-107910961D01*
X169741541Y-107149057D02*
X169836779Y-107110961D01*
X169836779Y-107110961D02*
X170027255Y-107110961D01*
X170027255Y-107110961D02*
X170122493Y-107149057D01*
X170122493Y-107149057D02*
X170170112Y-107187152D01*
X170170112Y-107187152D02*
X170217731Y-107263342D01*
X170217731Y-107263342D02*
X170217731Y-107491914D01*
X170217731Y-107491914D02*
X170170112Y-107568104D01*
X170170112Y-107568104D02*
X170122493Y-107606200D01*
X170122493Y-107606200D02*
X170027255Y-107644295D01*
X170027255Y-107644295D02*
X169836779Y-107644295D01*
X169836779Y-107644295D02*
X169741541Y-107606200D01*
X170646303Y-107644295D02*
X170646303Y-107110961D01*
X170646303Y-107187152D02*
X170693922Y-107149057D01*
X170693922Y-107149057D02*
X170789160Y-107110961D01*
X170789160Y-107110961D02*
X170932017Y-107110961D01*
X170932017Y-107110961D02*
X171027255Y-107149057D01*
X171027255Y-107149057D02*
X171074874Y-107225247D01*
X171074874Y-107225247D02*
X171074874Y-107644295D01*
X171074874Y-107225247D02*
X171122493Y-107149057D01*
X171122493Y-107149057D02*
X171217731Y-107110961D01*
X171217731Y-107110961D02*
X171360588Y-107110961D01*
X171360588Y-107110961D02*
X171455827Y-107149057D01*
X171455827Y-107149057D02*
X171503446Y-107225247D01*
X171503446Y-107225247D02*
X171503446Y-107644295D01*
X172503445Y-107644295D02*
X171932017Y-107644295D01*
X172217731Y-107644295D02*
X172217731Y-106844295D01*
X172217731Y-106844295D02*
X172122493Y-106958580D01*
X172122493Y-106958580D02*
X172027255Y-107034771D01*
X172027255Y-107034771D02*
X171932017Y-107072866D01*
X173455826Y-107644295D02*
X172884398Y-107644295D01*
X173170112Y-107644295D02*
X173170112Y-106844295D01*
X173170112Y-106844295D02*
X173074874Y-106958580D01*
X173074874Y-106958580D02*
X172979636Y-107034771D01*
X172979636Y-107034771D02*
X172884398Y-107072866D01*
X174074874Y-106844295D02*
X174170112Y-106844295D01*
X174170112Y-106844295D02*
X174265350Y-106882390D01*
X174265350Y-106882390D02*
X174312969Y-106920485D01*
X174312969Y-106920485D02*
X174360588Y-106996676D01*
X174360588Y-106996676D02*
X174408207Y-107149057D01*
X174408207Y-107149057D02*
X174408207Y-107339533D01*
X174408207Y-107339533D02*
X174360588Y-107491914D01*
X174360588Y-107491914D02*
X174312969Y-107568104D01*
X174312969Y-107568104D02*
X174265350Y-107606200D01*
X174265350Y-107606200D02*
X174170112Y-107644295D01*
X174170112Y-107644295D02*
X174074874Y-107644295D01*
X174074874Y-107644295D02*
X173979636Y-107606200D01*
X173979636Y-107606200D02*
X173932017Y-107568104D01*
X173932017Y-107568104D02*
X173884398Y-107491914D01*
X173884398Y-107491914D02*
X173836779Y-107339533D01*
X173836779Y-107339533D02*
X173836779Y-107149057D01*
X173836779Y-107149057D02*
X173884398Y-106996676D01*
X173884398Y-106996676D02*
X173932017Y-106920485D01*
X173932017Y-106920485D02*
X173979636Y-106882390D01*
X173979636Y-106882390D02*
X174074874Y-106844295D01*
X175027255Y-106844295D02*
X175122493Y-106844295D01*
X175122493Y-106844295D02*
X175217731Y-106882390D01*
X175217731Y-106882390D02*
X175265350Y-106920485D01*
X175265350Y-106920485D02*
X175312969Y-106996676D01*
X175312969Y-106996676D02*
X175360588Y-107149057D01*
X175360588Y-107149057D02*
X175360588Y-107339533D01*
X175360588Y-107339533D02*
X175312969Y-107491914D01*
X175312969Y-107491914D02*
X175265350Y-107568104D01*
X175265350Y-107568104D02*
X175217731Y-107606200D01*
X175217731Y-107606200D02*
X175122493Y-107644295D01*
X175122493Y-107644295D02*
X175027255Y-107644295D01*
X175027255Y-107644295D02*
X174932017Y-107606200D01*
X174932017Y-107606200D02*
X174884398Y-107568104D01*
X174884398Y-107568104D02*
X174836779Y-107491914D01*
X174836779Y-107491914D02*
X174789160Y-107339533D01*
X174789160Y-107339533D02*
X174789160Y-107149057D01*
X174789160Y-107149057D02*
X174836779Y-106996676D01*
X174836779Y-106996676D02*
X174884398Y-106920485D01*
X174884398Y-106920485D02*
X174932017Y-106882390D01*
X174932017Y-106882390D02*
X175027255Y-106844295D01*
X157833333Y-111859580D02*
X157785714Y-111907200D01*
X157785714Y-111907200D02*
X157642857Y-111954819D01*
X157642857Y-111954819D02*
X157547619Y-111954819D01*
X157547619Y-111954819D02*
X157404762Y-111907200D01*
X157404762Y-111907200D02*
X157309524Y-111811961D01*
X157309524Y-111811961D02*
X157261905Y-111716723D01*
X157261905Y-111716723D02*
X157214286Y-111526247D01*
X157214286Y-111526247D02*
X157214286Y-111383390D01*
X157214286Y-111383390D02*
X157261905Y-111192914D01*
X157261905Y-111192914D02*
X157309524Y-111097676D01*
X157309524Y-111097676D02*
X157404762Y-111002438D01*
X157404762Y-111002438D02*
X157547619Y-110954819D01*
X157547619Y-110954819D02*
X157642857Y-110954819D01*
X157642857Y-110954819D02*
X157785714Y-111002438D01*
X157785714Y-111002438D02*
X157833333Y-111050057D01*
X158738095Y-110954819D02*
X158261905Y-110954819D01*
X158261905Y-110954819D02*
X158214286Y-111431009D01*
X158214286Y-111431009D02*
X158261905Y-111383390D01*
X158261905Y-111383390D02*
X158357143Y-111335771D01*
X158357143Y-111335771D02*
X158595238Y-111335771D01*
X158595238Y-111335771D02*
X158690476Y-111383390D01*
X158690476Y-111383390D02*
X158738095Y-111431009D01*
X158738095Y-111431009D02*
X158785714Y-111526247D01*
X158785714Y-111526247D02*
X158785714Y-111764342D01*
X158785714Y-111764342D02*
X158738095Y-111859580D01*
X158738095Y-111859580D02*
X158690476Y-111907200D01*
X158690476Y-111907200D02*
X158595238Y-111954819D01*
X158595238Y-111954819D02*
X158357143Y-111954819D01*
X158357143Y-111954819D02*
X158261905Y-111907200D01*
X158261905Y-111907200D02*
X158214286Y-111859580D01*
X164833333Y-108859580D02*
X164785714Y-108907200D01*
X164785714Y-108907200D02*
X164642857Y-108954819D01*
X164642857Y-108954819D02*
X164547619Y-108954819D01*
X164547619Y-108954819D02*
X164404762Y-108907200D01*
X164404762Y-108907200D02*
X164309524Y-108811961D01*
X164309524Y-108811961D02*
X164261905Y-108716723D01*
X164261905Y-108716723D02*
X164214286Y-108526247D01*
X164214286Y-108526247D02*
X164214286Y-108383390D01*
X164214286Y-108383390D02*
X164261905Y-108192914D01*
X164261905Y-108192914D02*
X164309524Y-108097676D01*
X164309524Y-108097676D02*
X164404762Y-108002438D01*
X164404762Y-108002438D02*
X164547619Y-107954819D01*
X164547619Y-107954819D02*
X164642857Y-107954819D01*
X164642857Y-107954819D02*
X164785714Y-108002438D01*
X164785714Y-108002438D02*
X164833333Y-108050057D01*
X165785714Y-108954819D02*
X165214286Y-108954819D01*
X165500000Y-108954819D02*
X165500000Y-107954819D01*
X165500000Y-107954819D02*
X165404762Y-108097676D01*
X165404762Y-108097676D02*
X165309524Y-108192914D01*
X165309524Y-108192914D02*
X165214286Y-108240533D01*
X160833333Y-107109580D02*
X160785714Y-107157200D01*
X160785714Y-107157200D02*
X160642857Y-107204819D01*
X160642857Y-107204819D02*
X160547619Y-107204819D01*
X160547619Y-107204819D02*
X160404762Y-107157200D01*
X160404762Y-107157200D02*
X160309524Y-107061961D01*
X160309524Y-107061961D02*
X160261905Y-106966723D01*
X160261905Y-106966723D02*
X160214286Y-106776247D01*
X160214286Y-106776247D02*
X160214286Y-106633390D01*
X160214286Y-106633390D02*
X160261905Y-106442914D01*
X160261905Y-106442914D02*
X160309524Y-106347676D01*
X160309524Y-106347676D02*
X160404762Y-106252438D01*
X160404762Y-106252438D02*
X160547619Y-106204819D01*
X160547619Y-106204819D02*
X160642857Y-106204819D01*
X160642857Y-106204819D02*
X160785714Y-106252438D01*
X160785714Y-106252438D02*
X160833333Y-106300057D01*
X161690476Y-106538152D02*
X161690476Y-107204819D01*
X161452381Y-106157200D02*
X161214286Y-106871485D01*
X161214286Y-106871485D02*
X161833333Y-106871485D01*
X160583333Y-111704819D02*
X160107143Y-111704819D01*
X160107143Y-111704819D02*
X160107143Y-110704819D01*
X161440476Y-111704819D02*
X160869048Y-111704819D01*
X161154762Y-111704819D02*
X161154762Y-110704819D01*
X161154762Y-110704819D02*
X161059524Y-110847676D01*
X161059524Y-110847676D02*
X160964286Y-110942914D01*
X160964286Y-110942914D02*
X160869048Y-110990533D01*
X161737906Y-113954819D02*
X161737906Y-114764342D01*
X161737906Y-114764342D02*
X161785525Y-114859580D01*
X161785525Y-114859580D02*
X161833144Y-114907200D01*
X161833144Y-114907200D02*
X161928382Y-114954819D01*
X161928382Y-114954819D02*
X162118858Y-114954819D01*
X162118858Y-114954819D02*
X162214096Y-114907200D01*
X162214096Y-114907200D02*
X162261715Y-114859580D01*
X162261715Y-114859580D02*
X162309334Y-114764342D01*
X162309334Y-114764342D02*
X162309334Y-113954819D01*
X162737906Y-114050057D02*
X162785525Y-114002438D01*
X162785525Y-114002438D02*
X162880763Y-113954819D01*
X162880763Y-113954819D02*
X163118858Y-113954819D01*
X163118858Y-113954819D02*
X163214096Y-114002438D01*
X163214096Y-114002438D02*
X163261715Y-114050057D01*
X163261715Y-114050057D02*
X163309334Y-114145295D01*
X163309334Y-114145295D02*
X163309334Y-114240533D01*
X163309334Y-114240533D02*
X163261715Y-114383390D01*
X163261715Y-114383390D02*
X162690287Y-114954819D01*
X162690287Y-114954819D02*
X163309334Y-114954819D01*
X159413711Y-112704504D02*
X159413711Y-112942599D01*
X159175616Y-112847361D02*
X159413711Y-112942599D01*
X159413711Y-112942599D02*
X159651806Y-112847361D01*
X159270854Y-113133075D02*
X159413711Y-112942599D01*
X159413711Y-112942599D02*
X159556568Y-113133075D01*
X159413711Y-112704504D02*
X159413711Y-112942599D01*
X159175616Y-112847361D02*
X159413711Y-112942599D01*
X159413711Y-112942599D02*
X159651806Y-112847361D01*
X159270854Y-113133075D02*
X159413711Y-112942599D01*
X159413711Y-112942599D02*
X159556568Y-113133075D01*
X154774819Y-120991666D02*
X154298628Y-121324999D01*
X154774819Y-121563094D02*
X153774819Y-121563094D01*
X153774819Y-121563094D02*
X153774819Y-121182142D01*
X153774819Y-121182142D02*
X153822438Y-121086904D01*
X153822438Y-121086904D02*
X153870057Y-121039285D01*
X153870057Y-121039285D02*
X153965295Y-120991666D01*
X153965295Y-120991666D02*
X154108152Y-120991666D01*
X154108152Y-120991666D02*
X154203390Y-121039285D01*
X154203390Y-121039285D02*
X154251009Y-121086904D01*
X154251009Y-121086904D02*
X154298628Y-121182142D01*
X154298628Y-121182142D02*
X154298628Y-121563094D01*
X153870057Y-120610713D02*
X153822438Y-120563094D01*
X153822438Y-120563094D02*
X153774819Y-120467856D01*
X153774819Y-120467856D02*
X153774819Y-120229761D01*
X153774819Y-120229761D02*
X153822438Y-120134523D01*
X153822438Y-120134523D02*
X153870057Y-120086904D01*
X153870057Y-120086904D02*
X153965295Y-120039285D01*
X153965295Y-120039285D02*
X154060533Y-120039285D01*
X154060533Y-120039285D02*
X154203390Y-120086904D01*
X154203390Y-120086904D02*
X154774819Y-120658332D01*
X154774819Y-120658332D02*
X154774819Y-120039285D01*
X169109580Y-120666666D02*
X169157200Y-120714285D01*
X169157200Y-120714285D02*
X169204819Y-120857142D01*
X169204819Y-120857142D02*
X169204819Y-120952380D01*
X169204819Y-120952380D02*
X169157200Y-121095237D01*
X169157200Y-121095237D02*
X169061961Y-121190475D01*
X169061961Y-121190475D02*
X168966723Y-121238094D01*
X168966723Y-121238094D02*
X168776247Y-121285713D01*
X168776247Y-121285713D02*
X168633390Y-121285713D01*
X168633390Y-121285713D02*
X168442914Y-121238094D01*
X168442914Y-121238094D02*
X168347676Y-121190475D01*
X168347676Y-121190475D02*
X168252438Y-121095237D01*
X168252438Y-121095237D02*
X168204819Y-120952380D01*
X168204819Y-120952380D02*
X168204819Y-120857142D01*
X168204819Y-120857142D02*
X168252438Y-120714285D01*
X168252438Y-120714285D02*
X168300057Y-120666666D01*
X168204819Y-120333332D02*
X168204819Y-119714285D01*
X168204819Y-119714285D02*
X168585771Y-120047618D01*
X168585771Y-120047618D02*
X168585771Y-119904761D01*
X168585771Y-119904761D02*
X168633390Y-119809523D01*
X168633390Y-119809523D02*
X168681009Y-119761904D01*
X168681009Y-119761904D02*
X168776247Y-119714285D01*
X168776247Y-119714285D02*
X169014342Y-119714285D01*
X169014342Y-119714285D02*
X169109580Y-119761904D01*
X169109580Y-119761904D02*
X169157200Y-119809523D01*
X169157200Y-119809523D02*
X169204819Y-119904761D01*
X169204819Y-119904761D02*
X169204819Y-120190475D01*
X169204819Y-120190475D02*
X169157200Y-120285713D01*
X169157200Y-120285713D02*
X169109580Y-120333332D01*
X155436905Y-117954819D02*
X155436905Y-116954819D01*
X155436905Y-116954819D02*
X155675000Y-116954819D01*
X155675000Y-116954819D02*
X155817857Y-117002438D01*
X155817857Y-117002438D02*
X155913095Y-117097676D01*
X155913095Y-117097676D02*
X155960714Y-117192914D01*
X155960714Y-117192914D02*
X156008333Y-117383390D01*
X156008333Y-117383390D02*
X156008333Y-117526247D01*
X156008333Y-117526247D02*
X155960714Y-117716723D01*
X155960714Y-117716723D02*
X155913095Y-117811961D01*
X155913095Y-117811961D02*
X155817857Y-117907200D01*
X155817857Y-117907200D02*
X155675000Y-117954819D01*
X155675000Y-117954819D02*
X155436905Y-117954819D01*
X156389286Y-117050057D02*
X156436905Y-117002438D01*
X156436905Y-117002438D02*
X156532143Y-116954819D01*
X156532143Y-116954819D02*
X156770238Y-116954819D01*
X156770238Y-116954819D02*
X156865476Y-117002438D01*
X156865476Y-117002438D02*
X156913095Y-117050057D01*
X156913095Y-117050057D02*
X156960714Y-117145295D01*
X156960714Y-117145295D02*
X156960714Y-117240533D01*
X156960714Y-117240533D02*
X156913095Y-117383390D01*
X156913095Y-117383390D02*
X156341667Y-117954819D01*
X156341667Y-117954819D02*
X156960714Y-117954819D01*
X155474405Y-112774819D02*
X155474405Y-111774819D01*
X155474405Y-111774819D02*
X155712500Y-111774819D01*
X155712500Y-111774819D02*
X155855357Y-111822438D01*
X155855357Y-111822438D02*
X155950595Y-111917676D01*
X155950595Y-111917676D02*
X155998214Y-112012914D01*
X155998214Y-112012914D02*
X156045833Y-112203390D01*
X156045833Y-112203390D02*
X156045833Y-112346247D01*
X156045833Y-112346247D02*
X155998214Y-112536723D01*
X155998214Y-112536723D02*
X155950595Y-112631961D01*
X155950595Y-112631961D02*
X155855357Y-112727200D01*
X155855357Y-112727200D02*
X155712500Y-112774819D01*
X155712500Y-112774819D02*
X155474405Y-112774819D01*
X156998214Y-112774819D02*
X156426786Y-112774819D01*
X156712500Y-112774819D02*
X156712500Y-111774819D01*
X156712500Y-111774819D02*
X156617262Y-111917676D01*
X156617262Y-111917676D02*
X156522024Y-112012914D01*
X156522024Y-112012914D02*
X156426786Y-112060533D01*
X157583333Y-107179580D02*
X157535714Y-107227200D01*
X157535714Y-107227200D02*
X157392857Y-107274819D01*
X157392857Y-107274819D02*
X157297619Y-107274819D01*
X157297619Y-107274819D02*
X157154762Y-107227200D01*
X157154762Y-107227200D02*
X157059524Y-107131961D01*
X157059524Y-107131961D02*
X157011905Y-107036723D01*
X157011905Y-107036723D02*
X156964286Y-106846247D01*
X156964286Y-106846247D02*
X156964286Y-106703390D01*
X156964286Y-106703390D02*
X157011905Y-106512914D01*
X157011905Y-106512914D02*
X157059524Y-106417676D01*
X157059524Y-106417676D02*
X157154762Y-106322438D01*
X157154762Y-106322438D02*
X157297619Y-106274819D01*
X157297619Y-106274819D02*
X157392857Y-106274819D01*
X157392857Y-106274819D02*
X157535714Y-106322438D01*
X157535714Y-106322438D02*
X157583333Y-106370057D01*
X157964286Y-106370057D02*
X158011905Y-106322438D01*
X158011905Y-106322438D02*
X158107143Y-106274819D01*
X158107143Y-106274819D02*
X158345238Y-106274819D01*
X158345238Y-106274819D02*
X158440476Y-106322438D01*
X158440476Y-106322438D02*
X158488095Y-106370057D01*
X158488095Y-106370057D02*
X158535714Y-106465295D01*
X158535714Y-106465295D02*
X158535714Y-106560533D01*
X158535714Y-106560533D02*
X158488095Y-106703390D01*
X158488095Y-106703390D02*
X157916667Y-107274819D01*
X157916667Y-107274819D02*
X158535714Y-107274819D01*
D12*
%TO.C,C5*%
X157865580Y-109490000D02*
X157584420Y-109490000D01*
X157865580Y-110510000D02*
X157584420Y-110510000D01*
%TO.C,C1*%
X164665580Y-109490000D02*
X164384420Y-109490000D01*
X164665580Y-110510000D02*
X164384420Y-110510000D01*
%TO.C,C4*%
X161165580Y-107740000D02*
X160884420Y-107740000D01*
X161165580Y-108760000D02*
X160884420Y-108760000D01*
%TO.C,J2*%
X158090000Y-119920000D02*
X158090000Y-122580000D01*
X163230000Y-119920000D02*
X158090000Y-119920000D01*
X163230000Y-119920000D02*
X163230000Y-122580000D01*
X163230000Y-122580000D02*
X158090000Y-122580000D01*
X164500000Y-119920000D02*
X165830000Y-119920000D01*
X165830000Y-119920000D02*
X165830000Y-121250000D01*
%TO.C,J1*%
X171730000Y-110600000D02*
X170975000Y-110600000D01*
X171730000Y-110600000D02*
X171730000Y-119400000D01*
X174900000Y-108855000D02*
X175950000Y-108855000D01*
X174900000Y-121145000D02*
X175950000Y-121145000D01*
%TO.C,L1*%
X160799721Y-109490000D02*
X161125279Y-109490000D01*
X160799721Y-110510000D02*
X161125279Y-110510000D01*
%TO.C,J3*%
X151120000Y-114520000D02*
X151120000Y-111870000D01*
X153880000Y-111870000D02*
X151120000Y-111870000D01*
X153880000Y-114520000D02*
X151120000Y-114520000D01*
X153880000Y-114520000D02*
X153880000Y-111870000D01*
X153880000Y-115790000D02*
X153880000Y-117170000D01*
X153880000Y-117170000D02*
X152500000Y-117170000D01*
D13*
%TO.C,U2*%
X160378911Y-112379100D02*
X160378911Y-112789945D01*
X160378911Y-116210055D02*
X160378911Y-116620900D01*
X160378911Y-116620900D02*
X160789756Y-116620900D01*
X160789756Y-112379100D02*
X160378911Y-112379100D01*
X164209866Y-116620900D02*
X164620711Y-116620900D01*
X164620711Y-112379100D02*
X164209866Y-112379100D01*
X164620711Y-112789945D02*
X164620711Y-112379100D01*
X164620711Y-116620900D02*
X164620711Y-116210055D01*
D14*
G36*
X162940374Y-117306700D02*
G01*
X162559374Y-117306700D01*
X162559374Y-117052700D01*
X162940374Y-117052700D01*
X162940374Y-117306700D01*
G37*
G36*
X163440500Y-111947300D02*
G01*
X163059500Y-111947300D01*
X163059500Y-111693300D01*
X163440500Y-111693300D01*
X163440500Y-111947300D01*
G37*
D12*
%TO.C,R2*%
X155227500Y-121062258D02*
X155227500Y-120587742D01*
X156272500Y-121062258D02*
X156272500Y-120587742D01*
%TO.C,C3*%
X166740000Y-120665580D02*
X166740000Y-120384420D01*
X167760000Y-120665580D02*
X167760000Y-120384420D01*
%TO.C,D2*%
X154690000Y-115265000D02*
X154690000Y-116735000D01*
X154690000Y-116735000D02*
X156975000Y-116735000D01*
X156975000Y-115265000D02*
X154690000Y-115265000D01*
%TO.C,D1*%
X154727500Y-113015000D02*
X154727500Y-114485000D01*
X154727500Y-114485000D02*
X157012500Y-114485000D01*
X157012500Y-113015000D02*
X154727500Y-113015000D01*
%TO.C,C2*%
X157609420Y-107740000D02*
X157890580Y-107740000D01*
X157609420Y-108760000D02*
X157890580Y-108760000D01*
%TD*%
M02*
