%TF.GenerationSoftware,KiCad,Pcbnew,9.0.7*%
%TF.CreationDate,2026-03-30T23:21:56+05:30*%
%TF.ProjectId,AGV_nPM1100,4147565f-6e50-44d3-9131-30302e6b6963,rev?*%
%TF.SameCoordinates,Original*%
%TF.FileFunction,Soldermask,Top*%
%TF.FilePolarity,Negative*%
%FSLAX46Y46*%
G04 Gerber Fmt 4.6, Leading zero omitted, Abs format (unit mm)*
G04 Created by KiCad (PCBNEW 9.0.7) date 2026-03-30 23:21:56*
%MOMM*%
%LPD*%
G01*
G04 APERTURE LIST*
G04 Aperture macros list*
%AMRoundRect*
0 Rectangle with rounded corners*
0 $1 Rounding radius*
0 $2 $3 $4 $5 $6 $7 $8 $9 X,Y pos of 4 corners*
0 Add a 4 corners polygon primitive as box body*
4,1,4,$2,$3,$4,$5,$6,$7,$8,$9,$2,$3,0*
0 Add four circle primitives for the rounded corners*
1,1,$1+$1,$2,$3*
1,1,$1+$1,$4,$5*
1,1,$1+$1,$6,$7*
1,1,$1+$1,$8,$9*
0 Add four rect primitives between the rounded corners*
20,1,$1+$1,$2,$3,$4,$5,0*
20,1,$1+$1,$4,$5,$6,$7,0*
20,1,$1+$1,$6,$7,$8,$9,0*
20,1,$1+$1,$8,$9,$2,$3,0*%
G04 Aperture macros list end*
%ADD10RoundRect,0.225000X0.225000X0.250000X-0.225000X0.250000X-0.225000X-0.250000X0.225000X-0.250000X0*%
%ADD11R,1.700000X1.700000*%
%ADD12O,1.700000X1.700000*%
%ADD13C,1.100000*%
%ADD14R,2.500000X1.100000*%
%ADD15O,3.500000X1.900000*%
%ADD16RoundRect,0.218750X-0.218750X-0.256250X0.218750X-0.256250X0.218750X0.256250X-0.218750X0.256250X0*%
%ADD17C,1.700000*%
%ADD18R,0.762000X0.254000*%
%ADD19R,0.254000X0.762000*%
%ADD20R,2.794000X2.794000*%
%ADD21RoundRect,0.200000X0.275000X-0.200000X0.275000X0.200000X-0.275000X0.200000X-0.275000X-0.200000X0*%
%ADD22RoundRect,0.225000X0.250000X-0.225000X0.250000X0.225000X-0.250000X0.225000X-0.250000X-0.225000X0*%
%ADD23RoundRect,0.225000X-0.225000X-0.250000X0.225000X-0.250000X0.225000X0.250000X-0.225000X0.250000X0*%
G04 APERTURE END LIST*
D10*
%TO.C,C5*%
X158500000Y-110000000D03*
X156950000Y-110000000D03*
%TD*%
%TO.C,C1*%
X165300000Y-110000000D03*
X163750000Y-110000000D03*
%TD*%
%TO.C,C4*%
X161800000Y-108250000D03*
X160250000Y-108250000D03*
%TD*%
D11*
%TO.C,J2*%
X164500000Y-121250000D03*
D12*
X161960000Y-121250000D03*
X159420000Y-121250000D03*
%TD*%
D13*
%TO.C,J1*%
X172850000Y-112700000D03*
X172850000Y-117300000D03*
D14*
X170100000Y-111500000D03*
X170100000Y-114000000D03*
X170100000Y-116000000D03*
X170100000Y-118500000D03*
D15*
X172850000Y-109300000D03*
X172850000Y-120700000D03*
%TD*%
D16*
%TO.C,L1*%
X160175000Y-110000000D03*
X161750000Y-110000000D03*
%TD*%
D11*
%TO.C,J3*%
X152500000Y-115790000D03*
D17*
X152500000Y-113250000D03*
%TD*%
D18*
%TO.C,U2*%
X160582111Y-113249685D03*
X160582111Y-113749811D03*
X160582111Y-114249937D03*
X160582111Y-114750063D03*
X160582111Y-115250189D03*
X160582111Y-115750315D03*
D19*
X161249496Y-116417700D03*
X161749622Y-116417700D03*
X162249748Y-116417700D03*
X162749874Y-116417700D03*
X163250000Y-116417700D03*
X163750126Y-116417700D03*
D18*
X164417511Y-115750315D03*
X164417511Y-115250189D03*
X164417511Y-114750063D03*
X164417511Y-114249937D03*
X164417511Y-113749811D03*
X164417511Y-113249685D03*
D19*
X163750126Y-112582300D03*
X163250000Y-112582300D03*
X162749874Y-112582300D03*
X162249748Y-112582300D03*
X161749622Y-112582300D03*
X161249496Y-112582300D03*
D20*
X162499811Y-114500000D03*
%TD*%
D21*
%TO.C,R2*%
X155750000Y-121650000D03*
X155750000Y-120000000D03*
%TD*%
D22*
%TO.C,C3*%
X167250000Y-121300000D03*
X167250000Y-119750000D03*
%TD*%
D16*
%TO.C,D2*%
X155387500Y-116000000D03*
X156962500Y-116000000D03*
%TD*%
%TO.C,D1*%
X155425000Y-113750000D03*
X157000000Y-113750000D03*
%TD*%
D23*
%TO.C,C2*%
X156975000Y-108250000D03*
X158525000Y-108250000D03*
%TD*%
M02*
